<svg xmlns="http://www.w3.org/2000/svg" version="1.1" xmlns:xlink="http://www.w3.org/1999/xlink" xmlns:svgjs="http://svgjs.dev/svgjs" width="1440" height="560" preserveAspectRatio="none" viewBox="0 0 1440 560"><g mask="url(&quot;#SvgjsMask2677&quot;)" fill="none"><use xlink:href="#SvgjsG2680" transform="translate(0, 0)" fill="rgba(250, 235, 215, 1)"></use></g><defs><mask id="SvgjsMask2677"><rect width="1440" height="560" fill="#ffffff"></rect></mask><g id="SvgjsG2678"><path d="M15.964 4.774l-1.312 10.327H10.223L8.916 4.774h5.408L15.395 1.04 16 1.21l-1.024 3.562 0.988 0.002zM8.29 10.788s0.166-1.502-2.131-1.502H2.5c-2.293 0-2.131 1.502-2.132 1.502h7.922zM0.368 13.595s-0.162 1.506 2.132 1.506h3.659c2.297 0 2.131-1.506 2.131-1.506H0.369z m7.578-0.727a0.68 0.68 0 0 0 0.68-0.68c0-0.372-0.304-0.676-0.68-0.676H0.68C0.306 11.512 0 11.816 0 12.188a0.682 0.682 0 0 0 0.68 0.68h7.266z"></path></g><g id="SvgjsG2679"><path d="M7.741 5.269c-0.003 0.523-0.481 1.084-1.101 1.084v8.856c0 1.261-1.714 1.261-1.716 0V6.354c-0.602 0-1.127-0.465-1.126-1.159V0.315c-0.001-0.423 0.612-0.44 0.616 0.017v3.606h0.51V0.299c0-0.389 0.59-0.414 0.591 0.016v3.623h0.526V0.307C6.044-0.103 6.618-0.12 6.616 0.323v3.615h0.526V0.307c-0.002-0.406 0.597-0.423 0.599 0.016v4.946zM12.309 1.449v13.76c0.002 1.229-1.715 1.211-1.717 0V9.746h-0.912V1.449c-0.001-1.932 2.631-1.932 2.629 0z"></path></g><g id="SvgjsG2680"><use xlink:href="#SvgjsG2678" transform="translate(0, 0) scale(3)" fill="rgba(250, 235, 215, 1)"></use><use xlink:href="#SvgjsG2678" transform="translate(0, 147) scale(3)" fill="rgba(250, 235, 215, 1)"></use><use xlink:href="#SvgjsG2679" transform="translate(0, 294) scale(3)" fill="rgba(250, 235, 215, 1)"></use><use xlink:href="#SvgjsG2678" transform="translate(0, 441) scale(3)" fill="rgba(250, 235, 215, 1)"></use><use xlink:href="#SvgjsG2678" transform="translate(147, 0) scale(3)" fill="rgba(250, 235, 215, 1)"></use><use xlink:href="#SvgjsG2678" transform="translate(147, 147) scale(3)" fill="rgba(250, 235, 215, 1)"></use><use xlink:href="#SvgjsG2679" transform="translate(147, 294) scale(3)" fill="rgba(250, 235, 215, 1)"></use><use xlink:href="#SvgjsG2679" transform="translate(147, 441) scale(3)" fill="rgba(250, 235, 215, 1)"></use><use xlink:href="#SvgjsG2679" transform="translate(294, 0) scale(3)" fill="rgba(250, 235, 215, 1)"></use><use xlink:href="#SvgjsG2678" transform="translate(294, 147) scale(3)" fill="rgba(250, 235, 215, 1)"></use><use xlink:href="#SvgjsG2679" transform="translate(294, 294) scale(3)" fill="rgba(250, 235, 215, 1)"></use><use xlink:href="#SvgjsG2678" transform="translate(294, 441) scale(3)" fill="rgba(250, 235, 215, 1)"></use><use xlink:href="#SvgjsG2679" transform="translate(441, 0) scale(3)" fill="rgba(250, 235, 215, 1)"></use><use xlink:href="#SvgjsG2678" transform="translate(441, 147) scale(3)" fill="rgba(250, 235, 215, 1)"></use><use xlink:href="#SvgjsG2678" transform="translate(441, 294) scale(3)" fill="rgba(250, 235, 215, 1)"></use><use xlink:href="#SvgjsG2678" transform="translate(441, 441) scale(3)" fill="rgba(250, 235, 215, 1)"></use><use xlink:href="#SvgjsG2679" transform="translate(588, 0) scale(3)" fill="rgba(250, 235, 215, 1)"></use><use xlink:href="#SvgjsG2678" transform="translate(588, 147) scale(3)" fill="rgba(250, 235, 215, 1)"></use><use xlink:href="#SvgjsG2678" transform="translate(588, 294) scale(3)" fill="rgba(250, 235, 215, 1)"></use><use xlink:href="#SvgjsG2679" transform="translate(588, 441) scale(3)" fill="rgba(250, 235, 215, 1)"></use><use xlink:href="#SvgjsG2678" transform="translate(735, 0) scale(3)" fill="rgba(250, 235, 215, 1)"></use><use xlink:href="#SvgjsG2678" transform="translate(735, 147) scale(3)" fill="rgba(250, 235, 215, 1)"></use><use xlink:href="#SvgjsG2678" transform="translate(735, 294) scale(3)" fill="rgba(250, 235, 215, 1)"></use><use xlink:href="#SvgjsG2679" transform="translate(735, 441) scale(3)" fill="rgba(250, 235, 215, 1)"></use><use xlink:href="#SvgjsG2678" transform="translate(882, 0) scale(3)" fill="rgba(250, 235, 215, 1)"></use><use xlink:href="#SvgjsG2679" transform="translate(882, 147) scale(3)" fill="rgba(250, 235, 215, 1)"></use><use xlink:href="#SvgjsG2678" transform="translate(882, 294) scale(3)" fill="rgba(250, 235, 215, 1)"></use><use xlink:href="#SvgjsG2679" transform="translate(882, 441) scale(3)" fill="rgba(250, 235, 215, 1)"></use><use xlink:href="#SvgjsG2678" transform="translate(1029, 0) scale(3)" fill="rgba(250, 235, 215, 1)"></use><use xlink:href="#SvgjsG2679" transform="translate(1029, 147) scale(3)" fill="rgba(250, 235, 215, 1)"></use><use xlink:href="#SvgjsG2678" transform="translate(1029, 294) scale(3)" fill="rgba(250, 235, 215, 1)"></use><use xlink:href="#SvgjsG2679" transform="translate(1029, 441) scale(3)" fill="rgba(250, 235, 215, 1)"></use><use xlink:href="#SvgjsG2678" transform="translate(1176, 0) scale(3)" fill="rgba(250, 235, 215, 1)"></use><use xlink:href="#SvgjsG2679" transform="translate(1176, 147) scale(3)" fill="rgba(250, 235, 215, 1)"></use><use xlink:href="#SvgjsG2678" transform="translate(1176, 294) scale(3)" fill="rgba(250, 235, 215, 1)"></use><use xlink:href="#SvgjsG2679" transform="translate(1176, 441) scale(3)" fill="rgba(250, 235, 215, 1)"></use><use xlink:href="#SvgjsG2679" transform="translate(1323, 0) scale(3)" fill="rgba(250, 235, 215, 1)"></use><use xlink:href="#SvgjsG2678" transform="translate(1323, 147) scale(3)" fill="rgba(250, 235, 215, 1)"></use><use xlink:href="#SvgjsG2678" transform="translate(1323, 294) scale(3)" fill="rgba(250, 235, 215, 1)"></use><use xlink:href="#SvgjsG2679" transform="translate(1323, 441) scale(3)" fill="rgba(250, 235, 215, 1)"></use></g></defs></svg>